<svg version="1.0" xmlns="http://www.w3.org/2000/svg"
 width="24" height="24" viewBox="0 0 512.000000 512.000000"
 preserveAspectRatio="xMidYMid meet">

<g transform="translate(0.000000,512.000000) scale(0.100000,-0.100000)"
fill="#FFD800" stroke="none">
<path d="M0 3902 c0 -671 3 -851 13 -854 6 -3 821 -112 1809 -244 989 -131
1798 -241 1798 -244 0 -3 -809 -113 -1798 -244 -988 -132 -1803 -241 -1809
-244 -10 -3 -13 -183 -13 -854 0 -805 1 -850 18 -844 63 23 5092 2182 5092
2186 0 4 -5029 2163 -5092 2186 -17 6 -18 -39 -18 -844z"/>
</g>
</svg>
