<?xml version="1.0" encoding="utf-8"?>
<!-- Generator: Adobe Illustrator 21.1.0, SVG Export Plug-In . SVG Version: 6.00 Build 0)  -->
<svg version="1.1" id="Layer_1" xmlns="http://www.w3.org/2000/svg" xmlns:xlink="http://www.w3.org/1999/xlink" x="0px" y="0px"
	 viewBox="0 0 64 64" style="enable-background:new 0 0 64 64;" xml:space="preserve">
<style type="text/css">
	.st0{fill:#111111;}
	.st1{fill:none;}
</style>
<g>
	<path class="st0" d="M51,13H13c-3.9,0-7,3.1-7,7l0,20c0,3.9,3.1,7,7,7h6v8h2.8l8-8H51c3.9,0,7-3.1,7-7l0-20C58,16.1,54.9,13,51,13z
		 M54,40c0,1.7-1.3,3-3,3H28.2L23,48.2V43H13c-1.7,0-3-1.3-3-3l0-20c0-1.7,1.3-3,3-3h38c1.7,0,3,1.3,3,3L54,40z"/>
	<rect class="st1" width="64" height="64"/>
</g>
</svg>
